#extradata 0:     3766, 0xde3392f7
#tb 0: 11337/500000000
#media_type 0: audio
#codec_id 0: vorbis
#sample_rate 0: 44100
#channel_layout 0: 3
#channel_layout_name 0: stereo
0,          0,          0,      128,       84, 0x1beb2cc9
0,        128,        128,      576,      533, 0xa5d425e9
0,        704,        704,     1024,      505, 0x4b970e01
0,       1728,       1728,     1024,      503, 0x8f4b0607
0,       2752,       2752,     1024,      507, 0x546e0bc6
0,       3776,       3776,     1024,      507, 0xe006103f
0,       4800,       4800,     1024,      502, 0xc7770a66
0,       5824,       5824,     1024,      500, 0x89690d08
0,       6785,       6785,     1024,      501, 0x47c50720
0,       7809,       7809,     1024,      490, 0x4b5efd2d
0,       8833,       8833,     1024,      510, 0xa5110fdf
0,       9857,       9857,      576,       80, 0x6d1129bd
0,      10433,      10433,      128,       84, 0x18272cc1
0,      10561,      10561,      128,       79, 0x7720262e
0,      10689,      10689,      128,       83, 0x5d1c2d22
0,      10817,      10817,      128,       84, 0xbbdc2c28
0,      10945,      10945,      128,      154, 0x2c41556c
0,      11073,      11073,      128,      148, 0xdd135006
0,      11201,      11201,      128,      151, 0xf4b253b4
0,      11329,      11329,      128,       91, 0x258a34b8
0,      11457,      11457,      128,       79, 0x654923dc
0,      11585,      11585,      128,       88, 0xb3853007
0,      11713,      11713,      128,       84, 0x33a72c00
0,      11841,      11841,      128,       86, 0x38802c2f
0,      11969,      11969,      128,      155, 0x923253ce
0,      12097,      12097,      128,      138, 0x0d3a408d
0,      12225,      12225,      128,      140, 0x95ca470e
0,      12353,      12353,      576,      481, 0x6d6de7fd
0,      12929,      12929,     1024,      474, 0x74bee6fb
0,      13953,      13953,     1024,      446, 0x777be048
0,      14977,      14977,     1024,      469, 0x9b49e7bd
0,      16001,      16001,     1024,      458, 0xb728df34
0,      17025,      17025,     1024,      460, 0x1519e267
0,      18049,      18049,     1024,      467, 0x391ff1ab
0,      19073,      19073,     1024,      464, 0x7b4ff249
0,      20097,      20097,      576,      144, 0x9daa47e4
0,      20673,      20673,      128,      151, 0xc8b24f08
0,      20801,      20801,      128,      134, 0xfda444ec
0,      20929,      20929,      576,      428, 0x2ad8d2de
0,      21505,      21505,      576,       80, 0xcdf12536
0,      22082,      22082,      128,      143, 0x935a4d4e
0,      22210,      22210,      128,      140, 0xb99a4ee5
0,      22338,      22338,      128,      141, 0xf36954b9
0,      22466,      22466,      128,      151, 0x13b9505c
0,      22594,      22594,      128,      142, 0xd8734a5f
0,      22722,      22722,      576,      465, 0x9e6ceade
0,      23298,      23298,     1024,      480, 0x6e98f308
0,      24322,      24322,     1024,      465, 0xeecdeac4
0,      25346,      25346,     1024,      464, 0x2a0cec3c
0,      26370,      26370,     1024,      487, 0xc66d0123
0,      27394,      27394,     1024,      505, 0x0d1f0d85
0,      28418,      28418,     1024,      479, 0x8d3af09e
0,      29442,      29442,     1024,      485, 0x4927fa6a
0,      30466,      30466,     1024,      483, 0x95c102a7
0,      31490,      31490,     1024,      467, 0x7646ec5b
0,      32514,      32514,     1024,      492, 0x967505e9
0,      33539,      33539,     1024,      491, 0x06670254
0,      34563,      34563,      576,       76, 0x994e25d8
0,      35139,      35139,      128,       84, 0xc8ba2a76
0,      35267,      35267,      128,       90, 0x0008339a
0,      35395,      35395,      128,       84, 0x3d722790
0,      35523,      35523,      128,       76, 0x3d5c23bf
0,      35651,      35651,      128,       82, 0x4cba28a1
0,      35779,      35779,      128,      157, 0xf79058e2
0,      35907,      35907,      128,      141, 0x72a24a6c
0,      36035,      36035,      576,      498, 0x5a200efb
0,      36611,      36611,     1024,      489, 0x135dfd19
0,      37635,      37635,     1024,      509, 0x98580e17
0,      38659,      38659,     1024,      508, 0x05851706
0,      39683,      39683,      576,       89, 0xc7872e24
0,      40259,      40259,      128,       87, 0x956e2e17
0,      40387,      40387,      128,       91, 0x382e2fd0
0,      40515,      40515,      128,       90, 0x6a6830f1
0,      40643,      40643,      128,       88, 0xa50432da
0,      40771,      40771,      128,       85, 0xac5f30b2
0,      40899,      40899,      128,      155, 0x4fa559da
0,      41027,      41027,      128,      154, 0x62535bad
0,      41155,      41155,      128,      155, 0x056c5a66
0,      41283,      41283,      576,      499, 0xa19af50c
0,      41859,      41859,     1024,      495, 0xdd9c008b
0,      42883,      42883,      576,       83, 0x85722403
0,      43459,      43459,      128,      155, 0x43ad5339
0,      43587,      43587,      128,      144, 0x70804dd2
0,      43715,      43715,      576,      480, 0x8b6101c7
